<svg width="16" height="16" viewBox="0 0 16 16" fill="none" xmlns="http://www.w3.org/2000/svg">
<mask id="path-1-inside-1_78_438" fill="white">
<path d="M6.47623 5.34058e-05H0.380955C0.279919 5.34058e-05 0.183022 0.0401897 0.111579 0.111633C0.0401363 0.183076 0 0.279973 0 0.381008V6.47629C0 6.57732 0.0401363 6.67422 0.111579 6.74566C0.183022 6.81711 0.279919 6.85724 0.380955 6.85724H6.47623C6.57727 6.85724 6.67417 6.81711 6.74561 6.74566C6.81705 6.67422 6.85719 6.57732 6.85719 6.47629V0.381008C6.85719 0.279973 6.81705 0.183076 6.74561 0.111633C6.67417 0.0401897 6.57727 5.34058e-05 6.47623 5.34058e-05ZM6.09528 6.09533H0.76191V0.761963H6.09528V6.09533ZM15.6192 5.34058e-05H9.52387C9.42284 5.34058e-05 9.32594 0.0401897 9.2545 0.111633C9.18306 0.183076 9.14292 0.279973 9.14292 0.381008V6.47629C9.14292 6.57732 9.18306 6.67422 9.2545 6.74566C9.32594 6.81711 9.42284 6.85724 9.52387 6.85724H15.6192C15.7202 6.85724 15.8171 6.81711 15.8885 6.74566C15.96 6.67422 16.0001 6.57732 16.0001 6.47629V0.381008C16.0001 0.279973 15.96 0.183076 15.8885 0.111633C15.8171 0.0401897 15.7202 5.34058e-05 15.6192 5.34058e-05ZM15.2382 6.09533H9.90483V0.761963H15.2382V6.09533ZM6.47623 9.14297H0.380955C0.279919 9.14297 0.183022 9.18311 0.111579 9.25455C0.0401363 9.32599 0 9.42289 0 9.52393V15.6192C5.05132e-06 15.7202 0.0401428 15.8171 0.111585 15.8886C0.183026 15.96 0.279921 16.0002 0.380955 16.0002H6.47623C6.57727 16.0002 6.67416 15.96 6.7456 15.8886C6.81705 15.8171 6.85718 15.7202 6.85719 15.6192V9.52393C6.85719 9.42289 6.81705 9.32599 6.74561 9.25455C6.67417 9.18311 6.57727 9.14297 6.47623 9.14297ZM6.09528 15.2383H0.76191V9.90488H6.09528V15.2383ZM15.6192 9.14297H9.52387C9.42284 9.14297 9.32594 9.18311 9.2545 9.25455C9.18306 9.32599 9.14292 9.42289 9.14292 9.52393V15.6192C9.14292 15.7202 9.18306 15.8171 9.2545 15.8886C9.32595 15.96 9.42284 16.0002 9.52387 16.0002H15.6192C15.7202 16.0002 15.8171 15.96 15.8885 15.8886C15.96 15.8171 16.0001 15.7202 16.0001 15.6192V9.52393C16.0001 9.42289 15.96 9.32599 15.8885 9.25455C15.8171 9.18311 15.7202 9.14297 15.6192 9.14297ZM15.2382 15.2383H9.90483V9.90488H15.2382V15.2383Z"/>
</mask>
<path d="M6.47623 5.34058e-05H0.380955C0.279919 5.34058e-05 0.183022 0.0401897 0.111579 0.111633C0.0401363 0.183076 0 0.279973 0 0.381008V6.47629C0 6.57732 0.0401363 6.67422 0.111579 6.74566C0.183022 6.81711 0.279919 6.85724 0.380955 6.85724H6.47623C6.57727 6.85724 6.67417 6.81711 6.74561 6.74566C6.81705 6.67422 6.85719 6.57732 6.85719 6.47629V0.381008C6.85719 0.279973 6.81705 0.183076 6.74561 0.111633C6.67417 0.0401897 6.57727 5.34058e-05 6.47623 5.34058e-05ZM6.09528 6.09533H0.76191V0.761963H6.09528V6.09533ZM15.6192 5.34058e-05H9.52387C9.42284 5.34058e-05 9.32594 0.0401897 9.2545 0.111633C9.18306 0.183076 9.14292 0.279973 9.14292 0.381008V6.47629C9.14292 6.57732 9.18306 6.67422 9.2545 6.74566C9.32594 6.81711 9.42284 6.85724 9.52387 6.85724H15.6192C15.7202 6.85724 15.8171 6.81711 15.8885 6.74566C15.96 6.67422 16.0001 6.57732 16.0001 6.47629V0.381008C16.0001 0.279973 15.96 0.183076 15.8885 0.111633C15.8171 0.0401897 15.7202 5.34058e-05 15.6192 5.34058e-05ZM15.2382 6.09533H9.90483V0.761963H15.2382V6.09533ZM6.47623 9.14297H0.380955C0.279919 9.14297 0.183022 9.18311 0.111579 9.25455C0.0401363 9.32599 0 9.42289 0 9.52393V15.6192C5.05132e-06 15.7202 0.0401428 15.8171 0.111585 15.8886C0.183026 15.96 0.279921 16.0002 0.380955 16.0002H6.47623C6.57727 16.0002 6.67416 15.96 6.7456 15.8886C6.81705 15.8171 6.85718 15.7202 6.85719 15.6192V9.52393C6.85719 9.42289 6.81705 9.32599 6.74561 9.25455C6.67417 9.18311 6.57727 9.14297 6.47623 9.14297ZM6.09528 15.2383H0.76191V9.90488H6.09528V15.2383ZM15.6192 9.14297H9.52387C9.42284 9.14297 9.32594 9.18311 9.2545 9.25455C9.18306 9.32599 9.14292 9.42289 9.14292 9.52393V15.6192C9.14292 15.7202 9.18306 15.8171 9.2545 15.8886C9.32595 15.96 9.42284 16.0002 9.52387 16.0002H15.6192C15.7202 16.0002 15.8171 15.96 15.8885 15.8886C15.96 15.8171 16.0001 15.7202 16.0001 15.6192V9.52393C16.0001 9.42289 15.96 9.32599 15.8885 9.25455C15.8171 9.18311 15.7202 9.14297 15.6192 9.14297ZM15.2382 15.2383H9.90483V9.90488H15.2382V15.2383Z" fill="white"/>
<path d="M6.09528 6.09533V7.09533H7.09528V6.09533H6.09528ZM0.76191 6.09533H-0.23809V7.09533H0.76191V6.09533ZM0.76191 0.761963V-0.238037H-0.23809V0.761963H0.76191ZM6.09528 0.761963H7.09528V-0.238037H6.09528V0.761963ZM15.2382 6.09533V7.09533H16.2382V6.09533H15.2382ZM9.90483 6.09533H8.90483V7.09533H9.90483V6.09533ZM9.90483 0.761963V-0.238037H8.90483V0.761963H9.90483ZM15.2382 0.761963H16.2382V-0.238037H15.2382V0.761963ZM0 15.6192H-1V15.6193L0 15.6192ZM0.380955 16.0002L0.380905 17.0002H0.380955V16.0002ZM6.47623 16.0002L6.47623 17.0002H6.47628L6.47623 16.0002ZM6.85719 15.6192L7.85719 15.6193V15.6192H6.85719ZM6.09528 15.2383V16.2383H7.09528V15.2383H6.09528ZM0.76191 15.2383H-0.23809V16.2383H0.76191V15.2383ZM0.76191 9.90488V8.90488H-0.23809V9.90488H0.76191ZM6.09528 9.90488H7.09528V8.90488H6.09528V9.90488ZM9.14292 15.6192H8.14292V15.6193L9.14292 15.6192ZM9.52387 16.0002L9.52382 17.0002H9.52387V16.0002ZM15.6192 16.0002V17.0002H15.6192L15.6192 16.0002ZM16.0001 15.6192L17.0001 15.6193V15.6192H16.0001ZM15.2382 15.2383V16.2383H16.2382V15.2383H15.2382ZM9.90483 15.2383H8.90483V16.2383H9.90483V15.2383ZM9.90483 9.90488V8.90488H8.90483V9.90488H9.90483ZM15.2382 9.90488H16.2382V8.90488H15.2382V9.90488ZM6.47623 5.34058e-05V-0.999947H0.380955V5.34058e-05V1.00005H6.47623V5.34058e-05ZM0.380955 5.34058e-05V-0.999947C0.0147022 -0.999947 -0.336549 -0.854453 -0.595528 -0.595474L0.111579 0.111633L0.818686 0.818739C0.702593 0.934832 0.545137 1.00005 0.380955 1.00005V5.34058e-05ZM0.111579 0.111633L-0.595528 -0.595474C-0.854506 -0.336495 -1 0.0147556 -1 0.381008H0H1C1 0.54519 0.934779 0.702646 0.818686 0.818739L0.111579 0.111633ZM0 0.381008H-1V6.47629H0H1V0.381008H0ZM0 6.47629H-1C-1 6.84254 -0.854507 7.19379 -0.595528 7.45277L0.111579 6.74566L0.818686 6.03856C0.93478 6.15465 1 6.31211 1 6.47629H0ZM0.111579 6.74566L-0.595528 7.45277C-0.336547 7.71175 0.0147047 7.85724 0.380955 7.85724V6.85724V5.85724C0.545134 5.85724 0.702591 5.92246 0.818686 6.03856L0.111579 6.74566ZM0.380955 6.85724V7.85724H6.47623V6.85724V5.85724H0.380955V6.85724ZM6.47623 6.85724V7.85724C6.84248 7.85724 7.19374 7.71175 7.45272 7.45277L6.74561 6.74566L6.0385 6.03856C6.1546 5.92246 6.31206 5.85724 6.47623 5.85724V6.85724ZM6.74561 6.74566L7.45272 7.45277C7.7117 7.19379 7.85719 6.84254 7.85719 6.47629H6.85719H5.85719C5.85719 6.31211 5.92241 6.15465 6.0385 6.03856L6.74561 6.74566ZM6.85719 6.47629H7.85719V0.381008H6.85719H5.85719V6.47629H6.85719ZM6.85719 0.381008H7.85719C7.85719 0.0147581 7.7117 -0.336494 7.45272 -0.595474L6.74561 0.111633L6.0385 0.818739C5.92241 0.702645 5.85719 0.545188 5.85719 0.381008H6.85719ZM6.74561 0.111633L7.45272 -0.595474C7.19374 -0.854454 6.84249 -0.999947 6.47623 -0.999947V5.34058e-05V1.00005C6.31205 1.00005 6.1546 0.934833 6.0385 0.818739L6.74561 0.111633ZM6.09528 6.09533V5.09533H0.76191V6.09533V7.09533H6.09528V6.09533ZM0.76191 6.09533H1.76191V0.761963H0.76191H-0.23809V6.09533H0.76191ZM0.76191 0.761963V1.76196H6.09528V0.761963V-0.238037H0.76191V0.761963ZM6.09528 0.761963H5.09528V6.09533H6.09528H7.09528V0.761963H6.09528ZM15.6192 5.34058e-05V-0.999947H9.52387V5.34058e-05V1.00005H15.6192V5.34058e-05ZM9.52387 5.34058e-05V-0.999947C9.15762 -0.999947 8.80637 -0.854454 8.54739 -0.595474L9.2545 0.111633L9.96161 0.818739C9.84551 0.934833 9.68806 1.00005 9.52387 1.00005V5.34058e-05ZM9.2545 0.111633L8.54739 -0.595474C8.28841 -0.336494 8.14292 0.0147581 8.14292 0.381008H9.14292H10.1429C10.1429 0.545188 10.0777 0.702645 9.96161 0.818739L9.2545 0.111633ZM9.14292 0.381008H8.14292V6.47629H9.14292H10.1429V0.381008H9.14292ZM9.14292 6.47629H8.14292C8.14292 6.84254 8.28841 7.19379 8.54739 7.45277L9.2545 6.74566L9.96161 6.03856C10.0777 6.15465 10.1429 6.31211 10.1429 6.47629H9.14292ZM9.2545 6.74566L8.54739 7.45277C8.80637 7.71175 9.15763 7.85724 9.52387 7.85724V6.85724V5.85724C9.68805 5.85724 9.84551 5.92246 9.96161 6.03856L9.2545 6.74566ZM9.52387 6.85724V7.85724H15.6192V6.85724V5.85724H9.52387V6.85724ZM15.6192 6.85724V7.85724C15.9854 7.85724 16.3367 7.71175 16.5956 7.45277L15.8885 6.74566L15.1814 6.03856C15.2975 5.92246 15.455 5.85724 15.6192 5.85724V6.85724ZM15.8885 6.74566L16.5956 7.45277C16.8546 7.19379 17.0001 6.84254 17.0001 6.47629H16.0001H15.0001C15.0001 6.31211 15.0653 6.15465 15.1814 6.03856L15.8885 6.74566ZM16.0001 6.47629H17.0001V0.381008H16.0001H15.0001V6.47629H16.0001ZM16.0001 0.381008H17.0001C17.0001 0.0147581 16.8546 -0.336494 16.5956 -0.595474L15.8885 0.111633L15.1814 0.818739C15.0653 0.702645 15.0001 0.545188 15.0001 0.381008H16.0001ZM15.8885 0.111633L16.5956 -0.595474C16.3367 -0.854454 15.9854 -0.999947 15.6192 -0.999947V5.34058e-05V1.00005C15.455 1.00005 15.2975 0.934833 15.1814 0.818739L15.8885 0.111633ZM15.2382 6.09533V5.09533H9.90483V6.09533V7.09533H15.2382V6.09533ZM9.90483 6.09533H10.9048V0.761963H9.90483H8.90483V6.09533H9.90483ZM9.90483 0.761963V1.76196H15.2382V0.761963V-0.238037H9.90483V0.761963ZM15.2382 0.761963H14.2382V6.09533H15.2382H16.2382V0.761963H15.2382ZM6.47623 9.14297V8.14297H0.380955V9.14297V10.143H6.47623V9.14297ZM0.380955 9.14297V8.14297C0.0147047 8.14297 -0.336547 8.28846 -0.595528 8.54745L0.111579 9.25455L0.818686 9.96166C0.702591 10.0778 0.545134 10.143 0.380955 10.143V9.14297ZM0.111579 9.25455L-0.595528 8.54745C-0.854507 8.80642 -1 9.15768 -1 9.52393H0H1C1 9.68811 0.93478 9.84556 0.818686 9.96166L0.111579 9.25455ZM0 9.52393H-1V15.6192H0H1V9.52393H0ZM0 15.6192L-1 15.6193C-0.999982 15.9855 -0.854488 16.3367 -0.595522 16.5957L0.111585 15.8886L0.818691 15.1815C0.934774 15.2976 0.999992 15.455 1 15.6192L0 15.6192ZM0.111585 15.8886L-0.595522 16.5957C-0.336556 16.8547 0.0146724 17.0001 0.380905 17.0002L0.380955 16.0002L0.381005 15.0002C0.54517 15.0002 0.702609 15.0654 0.818691 15.1815L0.111585 15.8886ZM0.380955 16.0002V17.0002H6.47623V16.0002V15.0002H0.380955V16.0002ZM6.47623 16.0002L6.47628 17.0002C6.84252 17.0001 7.19375 16.8547 7.45271 16.5957L6.7456 15.8886L6.0385 15.1815C6.15458 15.0654 6.31202 15.0002 6.47618 15.0002L6.47623 16.0002ZM6.7456 15.8886L7.45271 16.5957C7.71168 16.3367 7.85717 15.9855 7.85719 15.6193L6.85719 15.6192L5.85719 15.6192C5.8572 15.455 5.92242 15.2976 6.0385 15.1815L6.7456 15.8886ZM6.85719 15.6192H7.85719V9.52393H6.85719H5.85719V15.6192H6.85719ZM6.85719 9.52393H7.85719C7.85719 9.15768 7.7117 8.80643 7.45272 8.54745L6.74561 9.25455L6.0385 9.96166C5.92241 9.84556 5.85719 9.68811 5.85719 9.52393H6.85719ZM6.74561 9.25455L7.45272 8.54745C7.19374 8.28846 6.84248 8.14297 6.47623 8.14297V9.14297V10.143C6.31206 10.143 6.1546 10.0778 6.0385 9.96166L6.74561 9.25455ZM6.09528 15.2383V14.2383H0.76191V15.2383V16.2383H6.09528V15.2383ZM0.76191 15.2383H1.76191V9.90488H0.76191H-0.23809V15.2383H0.76191ZM0.76191 9.90488V10.9049H6.09528V9.90488V8.90488H0.76191V9.90488ZM6.09528 9.90488H5.09528V15.2383H6.09528H7.09528V9.90488H6.09528ZM15.6192 9.14297V8.14297H9.52387V9.14297V10.143H15.6192V9.14297ZM9.52387 9.14297V8.14297C9.15763 8.14297 8.80637 8.28846 8.54739 8.54745L9.2545 9.25455L9.96161 9.96166C9.84551 10.0778 9.68805 10.143 9.52387 10.143V9.14297ZM9.2545 9.25455L8.54739 8.54745C8.28841 8.80643 8.14292 9.15768 8.14292 9.52393H9.14292H10.1429C10.1429 9.68811 10.0777 9.84556 9.96161 9.96166L9.2545 9.25455ZM9.14292 9.52393H8.14292V15.6192H9.14292H10.1429V9.52393H9.14292ZM9.14292 15.6192L8.14292 15.6193C8.14294 15.9855 8.28843 16.3367 8.5474 16.5957L9.2545 15.8886L9.96161 15.1815C10.0777 15.2976 10.1429 15.455 10.1429 15.6192L9.14292 15.6192ZM9.2545 15.8886L8.5474 16.5957C8.80636 16.8547 9.15759 17.0001 9.52382 17.0002L9.52387 16.0002L9.52392 15.0002C9.68809 15.0002 9.84553 15.0654 9.96161 15.1815L9.2545 15.8886ZM9.52387 16.0002V17.0002H15.6192V16.0002V15.0002H9.52387V16.0002ZM15.6192 16.0002L15.6192 17.0002C15.9854 17.0001 16.3367 16.8547 16.5956 16.5957L15.8885 15.8886L15.1814 15.1815C15.2975 15.0654 15.4549 15.0002 15.6191 15.0002L15.6192 16.0002ZM15.8885 15.8886L16.5956 16.5957C16.8546 16.3367 17.0001 15.9855 17.0001 15.6193L16.0001 15.6192L15.0001 15.6192C15.0001 15.455 15.0653 15.2976 15.1814 15.1815L15.8885 15.8886ZM16.0001 15.6192H17.0001V9.52393H16.0001H15.0001V15.6192H16.0001ZM16.0001 9.52393H17.0001C17.0001 9.15768 16.8546 8.80643 16.5956 8.54745L15.8885 9.25455L15.1814 9.96166C15.0653 9.84556 15.0001 9.68811 15.0001 9.52393H16.0001ZM15.8885 9.25455L16.5956 8.54745C16.3367 8.28846 15.9854 8.14297 15.6192 8.14297V9.14297V10.143C15.455 10.143 15.2975 10.0778 15.1814 9.96166L15.8885 9.25455ZM15.2382 15.2383V14.2383H9.90483V15.2383V16.2383H15.2382V15.2383ZM9.90483 15.2383H10.9048V9.90488H9.90483H8.90483V15.2383H9.90483ZM9.90483 9.90488V10.9049H15.2382V9.90488V8.90488H9.90483V9.90488ZM15.2382 9.90488H14.2382V15.2383H15.2382H16.2382V9.90488H15.2382Z" fill="white" mask="url(#path-1-inside-1_78_438)"/>
</svg>
