<svg width="20" height="20" viewBox="0 0 20 20" fill="none" xmlns="http://www.w3.org/2000/svg">
<path d="M13.9154 15.8178H6.08203C5.73203 15.8178 5.34037 15.5428 5.2237 15.2094L1.7737 5.55944C1.28203 4.17611 1.85703 3.75111 3.04037 4.60111L6.29037 6.92611C6.83203 7.30111 7.4487 7.10944 7.68203 6.50111L9.1487 2.59277C9.61537 1.34277 10.3904 1.34277 10.857 2.59277L12.3237 6.50111C12.557 7.10944 13.1737 7.30111 13.707 6.92611L16.757 4.75111C18.057 3.81777 18.682 4.29277 18.1487 5.80111L14.782 15.2261C14.657 15.5428 14.2654 15.8178 13.9154 15.8178Z" stroke="#C1C9E5" stroke-width="1.5" stroke-linecap="round" stroke-linejoin="round"/>
<path d="M5.41699 18.3311H14.5837" stroke="#C1C9E5" stroke-width="1.5" stroke-linecap="round" stroke-linejoin="round"/>
<path d="M7.91699 11.6689H12.0837" stroke="#C1C9E5" stroke-width="1.5" stroke-linecap="round" stroke-linejoin="round"/>
</svg>
